<?xml version="1.0" encoding="iso-8859-1"?>
<!-- Uploaded to: SVG Repo, www.svgrepo.com, Generator: SVG Repo Mixer Tools -->
<!DOCTYPE svg PUBLIC "-//W3C//DTD SVG 1.1//EN" "http://www.w3.org/Graphics/SVG/1.1/DTD/svg11.dtd">
<svg version="1.1" id="Capa_1" xmlns="http://www.w3.org/2000/svg" xmlns:xlink="http://www.w3.org/1999/xlink" 
	 viewBox="0 0 297.5 297.5" xml:space="preserve">
<g id="XMLID_28_">
	<g>
		<path style="fill:#8E4942;" d="M255.8,137.07h-41.61c0.25-0.51,0.51-0.98,0.77-1.38l8.9-13.99c4.13-6.49,7.25-17.2,7.25-24.9
			V54.45h7.84V96.8c0,7.7,3.12,18.41,7.25,24.9l8.9,13.99C255.35,136.08,255.58,136.55,255.8,137.07z"/>
		<path style="fill:#C7A488;" d="M106.92,137.07H63.49l-28.12-28.13c-6.12-6.11-6.2-15.98-0.19-22c2.86-2.85,6.7-4.43,10.83-4.43
			c2.1,0,4.13,0.41,6.01,1.18v12.07c0,5.77,4.68,10.46,10.46,10.46c3.74,0,7.01-1.98,8.86-4.93l3.16,3.16v15.1
			c0,5.78,4.69,10.46,10.46,10.46c4.09,0,7.61-2.35,9.34-5.77l11.32,11.32C106.09,136.04,106.52,136.54,106.92,137.07z"/>
		<rect x="141.96" y="21.17" style="fill:#DEC978;" width="13.59" height="115.9"/>
		<polygon style="fill:#E98547;" points="257.22,192.49 243.41,276.33 54.1,276.33 40.29,192.49 		"/>
		<rect x="21.17" y="157.98" style="fill:#E98547;" width="255.17" height="13.6"/>
		<path d="M297.25,147.52v34.52c0,5.77-4.68,10.45-10.45,10.45h-8.38l-15.82,96c-0.83,5.05-5.2,8.76-10.32,8.76H45.22
			c-5.12,0-9.49-3.71-10.32-8.76l-15.81-96h-8.38c-5.77,0-10.46-4.68-10.46-10.45v-34.52c0-5.77,4.69-10.45,10.46-10.45h23.2
			l-13.33-13.34C6.31,109.46,6.22,86.32,20.39,72.15C27.2,65.35,36.3,61.6,46.01,61.6c9.81,0,19.03,3.81,25.96,10.74l49.07,48.77
			V10.71c0-5.78,4.68-10.46,10.46-10.46h34.51c5.77,0,10.46,4.68,10.46,10.46v126.36h15.5c1.3-4.67,3.18-9.22,5.34-12.61l8.9-13.99
			c2.01-3.16,3.98-9.92,3.98-13.67V54.45c0-11.53,9.38-20.91,20.92-20.91h7.84c11.53,0,20.92,9.38,20.92,20.91V96.8
			c0,3.75,1.97,10.51,3.98,13.67l8.9,13.99c2.23,3.51,3.84,7.98,4.71,12.61h9.34C292.57,137.07,297.25,141.75,297.25,147.52z
			 M276.34,171.58v-13.6H21.17v13.6H276.34z M243.41,276.33l13.81-83.84H40.29l13.81,83.84H243.41z M214.19,137.07h41.61
			c-0.22-0.52-0.45-0.99-0.7-1.38l-8.9-13.99c-4.13-6.49-7.25-17.2-7.25-24.9V54.45h-7.84V96.8c0,7.7-3.12,18.41-7.25,24.9
			l-8.9,13.99C214.7,136.09,214.44,136.56,214.19,137.07z M155.55,137.07V21.17h-13.59v115.9H155.55z M63.49,137.07h43.43
			c-0.4-0.53-0.83-1.03-1.3-1.51L94.3,124.24c-1.73,3.42-5.25,5.77-9.34,5.77c-5.77,0-10.46-4.68-10.46-10.46v-15.1l-3.16-3.16
			c-1.85,2.95-5.12,4.93-8.86,4.93c-5.78,0-10.46-4.69-10.46-10.46V83.69c-1.88-0.77-3.91-1.18-6.01-1.18
			c-4.13,0-7.97,1.58-10.83,4.43c-6.01,6.02-5.93,15.89,0.19,22L63.49,137.07z"/>
	</g>
	<g>
	</g>
</g>
</svg>